<?xml version="1.0" encoding="utf-8"?>
<svg xmlns="http://www.w3.org/2000/svg" xmlns:xlink="http://www.w3.org/1999/xlink" width="135" zoomAndPan="magnify" viewBox="127.5 135 135 78.75" height="78.75" preserveAspectRatio="xMidYMid meet" version="1.0">
  <defs>
    <g />
  </defs>
  <g fill="#000000" fill-opacity="1">
    <g transform="translate(135.685544, 167.873163)">
      <g>
        <path d="M 11.296875 -21.953125 C 8.890625 -21.953125 6.976562 -20.945312 5.5625 -18.9375 C 4.15625 -16.9375 3.453125 -14.035156 3.453125 -10.234375 C 3.453125 -5.628906 4.507812 -2.65625 6.625 -1.3125 C 7.257812 -0.90625 7.847656 -0.644531 8.390625 -0.53125 C 8.941406 -0.414062 9.546875 -0.359375 10.203125 -0.359375 C 12.316406 -0.359375 14.523438 -0.613281 16.828125 -1.125 L 16.921875 -0.671875 C 16.566406 -0.546875 15.601562 -0.378906 14.03125 -0.171875 C 12.46875 0.0234375 11.191406 0.125 10.203125 0.125 C 9.222656 0.125 8.367188 0.0546875 7.640625 -0.078125 C 6.921875 -0.210938 6.15625 -0.503906 5.34375 -0.953125 C 4.53125 -1.398438 3.84375 -1.992188 3.28125 -2.734375 C 2.71875 -3.472656 2.242188 -4.484375 1.859375 -5.765625 C 1.472656 -7.046875 1.28125 -8.535156 1.28125 -10.234375 C 1.28125 -14.015625 2.144531 -16.960938 3.875 -19.078125 C 5.6875 -21.296875 8.160156 -22.40625 11.296875 -22.40625 C 12.253906 -22.40625 13.289062 -22.3125 14.40625 -22.125 C 15.53125 -21.945312 16.328125 -21.769531 16.796875 -21.59375 L 17.1875 -16.984375 L 16.578125 -16.765625 L 16.15625 -20.1875 C 14.425781 -21.363281 12.804688 -21.953125 11.296875 -21.953125 Z M 11.296875 -21.953125 " />
      </g>
    </g>
  </g>
  <g fill="#000000" fill-opacity="1">
    <g transform="translate(153.665126, 167.873163)">
      <g>
        <path d="M 8.90625 0.125 C 6.675781 0.125 4.875 -0.515625 3.5 -1.796875 C 2.125 -3.078125 1.4375 -5.03125 1.4375 -7.65625 C 1.4375 -10.289062 2.164062 -12.359375 3.625 -13.859375 C 5.09375 -15.367188 6.9375 -16.125 9.15625 -16.125 C 11.375 -16.125 13.175781 -15.484375 14.5625 -14.203125 C 15.945312 -12.921875 16.640625 -10.960938 16.640625 -8.328125 C 16.640625 -5.703125 15.90625 -3.632812 14.4375 -2.125 C 12.976562 -0.625 11.132812 0.125 8.90625 0.125 Z M 9.109375 -15.546875 C 7.515625 -15.546875 6.179688 -14.851562 5.109375 -13.46875 C 4.046875 -12.082031 3.515625 -10.195312 3.515625 -7.8125 C 3.515625 -5.4375 4.019531 -3.613281 5.03125 -2.34375 C 6.050781 -1.082031 7.359375 -0.453125 8.953125 -0.453125 C 10.554688 -0.453125 11.890625 -1.144531 12.953125 -2.53125 C 14.023438 -3.914062 14.5625 -5.789062 14.5625 -8.15625 C 14.5625 -10.53125 14.050781 -12.351562 13.03125 -13.625 C 12.019531 -14.90625 10.710938 -15.546875 9.109375 -15.546875 Z M 9.109375 -15.546875 " />
      </g>
    </g>
  </g>
  <g fill="#000000" fill-opacity="1">
    <g transform="translate(171.740679, 167.873163)">
      <g>
        <path d="M 8.90625 0.125 C 6.675781 0.125 4.875 -0.515625 3.5 -1.796875 C 2.125 -3.078125 1.4375 -5.03125 1.4375 -7.65625 C 1.4375 -10.289062 2.164062 -12.359375 3.625 -13.859375 C 5.09375 -15.367188 6.9375 -16.125 9.15625 -16.125 C 11.375 -16.125 13.175781 -15.484375 14.5625 -14.203125 C 15.945312 -12.921875 16.640625 -10.960938 16.640625 -8.328125 C 16.640625 -5.703125 15.90625 -3.632812 14.4375 -2.125 C 12.976562 -0.625 11.132812 0.125 8.90625 0.125 Z M 9.109375 -15.546875 C 7.515625 -15.546875 6.179688 -14.851562 5.109375 -13.46875 C 4.046875 -12.082031 3.515625 -10.195312 3.515625 -7.8125 C 3.515625 -5.4375 4.019531 -3.613281 5.03125 -2.34375 C 6.050781 -1.082031 7.359375 -0.453125 8.953125 -0.453125 C 10.554688 -0.453125 11.890625 -1.144531 12.953125 -2.53125 C 14.023438 -3.914062 14.5625 -5.789062 14.5625 -8.15625 C 14.5625 -10.53125 14.050781 -12.351562 13.03125 -13.625 C 12.019531 -14.90625 10.710938 -15.546875 9.109375 -15.546875 Z M 9.109375 -15.546875 " />
      </g>
    </g>
  </g>
  <g fill="#000000" fill-opacity="1">
    <g transform="translate(189.816232, 167.873163)">
      <g>
        <path d="M 2.078125 0.03125 L 2.109375 -0.421875 L 3.78125 -0.640625 C 3.925781 -0.660156 4.019531 -0.765625 4.0625 -0.953125 L 4.0625 -22.84375 C 4.0625 -23.082031 4 -23.203125 3.875 -23.203125 L 1.921875 -23.265625 L 1.953125 -23.71875 C 3.296875 -23.90625 4.21875 -24 4.71875 -24 C 5.21875 -24 5.578125 -23.859375 5.796875 -23.578125 C 6.023438 -23.304688 6.140625 -23.007812 6.140625 -22.6875 L 6.140625 -0.640625 L 8.546875 -0.484375 C 8.546875 -0.460938 8.535156 -0.300781 8.515625 0 Z M 17.34375 -0.484375 C 17.34375 -0.460938 17.332031 -0.300781 17.3125 0 L 13.28125 0 L 6.140625 -8.515625 L 11.640625 -14.875 C 11.640625 -15.15625 11.554688 -15.304688 11.390625 -15.328125 L 9.734375 -15.546875 C 9.710938 -15.660156 9.703125 -15.8125 9.703125 -16 L 16.421875 -15.96875 C 16.421875 -15.945312 16.429688 -15.785156 16.453125 -15.484375 L 12.796875 -15.265625 L 7.421875 -9.40625 L 15.140625 -0.640625 Z M 17.34375 -0.484375 " />
      </g>
    </g>
  </g>
  <g fill="#000000" fill-opacity="1">
    <g transform="translate(208.435654, 167.873163)">
      <g />
    </g>
  </g>
  <g fill="#000000" fill-opacity="1">
    <g transform="translate(218.0013, 167.873163)">
      <g>
        <path d="M 6.109375 -14.6875 L 6.109375 -0.640625 L 8.515625 -0.484375 C 8.515625 -0.460938 8.503906 -0.300781 8.484375 0 L 2.078125 0.03125 C 2.078125 -0.15625 2.085938 -0.304688 2.109375 -0.421875 L 3.78125 -0.640625 C 3.90625 -0.640625 3.988281 -0.734375 4.03125 -0.921875 L 4.03125 -14.96875 C 3.988281 -15.125 3.925781 -15.203125 3.84375 -15.203125 L 1.921875 -15.265625 L 1.953125 -15.71875 C 3.109375 -15.90625 3.984375 -16 4.578125 -16 C 5.171875 -16 5.570312 -15.859375 5.78125 -15.578125 C 6 -15.304688 6.109375 -15.007812 6.109375 -14.6875 Z M 5.015625 -20.28125 C 4.597656 -20.28125 4.269531 -20.414062 4.03125 -20.6875 C 3.800781 -20.957031 3.6875 -21.3125 3.6875 -21.75 C 3.6875 -22.1875 3.804688 -22.535156 4.046875 -22.796875 C 4.296875 -23.066406 4.632812 -23.203125 5.0625 -23.203125 C 5.488281 -23.203125 5.832031 -23.066406 6.09375 -22.796875 C 6.363281 -22.535156 6.5 -22.175781 6.5 -21.71875 C 6.5 -21.257812 6.359375 -20.90625 6.078125 -20.65625 C 5.796875 -20.40625 5.441406 -20.28125 5.015625 -20.28125 Z M 5.015625 -20.28125 " />
      </g>
    </g>
  </g>
  <g fill="#000000" fill-opacity="1">
    <g transform="translate(228.110816, 167.873163)">
      <g>
        <path d="M 8.578125 -0.609375 L 9.828125 -0.671875 L 9.921875 -0.359375 C 9.898438 -0.359375 9.75 -0.320312 9.46875 -0.25 C 8.832031 -0.101562 8.117188 -0.03125 7.328125 -0.03125 C 6.597656 -0.0703125 5.9375 -0.191406 5.34375 -0.390625 C 4.75 -0.597656 4.191406 -1.023438 3.671875 -1.671875 C 3.160156 -2.328125 2.90625 -3.164062 2.90625 -4.1875 L 2.90625 -15.421875 L 1.28125 -15.421875 L 1.53125 -15.6875 L 2.9375 -15.96875 L 3.203125 -19.046875 L 4.984375 -19.203125 L 4.984375 -16 L 8.859375 -16 L 8.859375 -15.421875 L 4.984375 -15.421875 L 4.984375 -4.734375 C 4.984375 -3.109375 5.328125 -2.015625 6.015625 -1.453125 C 6.703125 -0.890625 7.554688 -0.609375 8.578125 -0.609375 Z M 8.578125 -0.609375 " />
      </g>
    </g>
  </g>
  <g fill="#ffc1b2" fill-opacity="0.302">
    <g transform="translate(134.559415, 193.156187)">
      <g>
        <path d="M 7.78125 -0.625 C 9.382812 -0.625 10.796875 -1.097656 12.015625 -2.046875 C 13.242188 -2.992188 13.859375 -4.4375 13.859375 -6.375 C 13.859375 -7.238281 13.644531 -7.984375 13.21875 -8.609375 C 12.789062 -9.234375 12.226562 -9.710938 11.53125 -10.046875 C 10.832031 -10.378906 10.066406 -10.671875 9.234375 -10.921875 C 8.410156 -11.171875 7.582031 -11.4375 6.75 -11.71875 C 5.925781 -12.007812 5.164062 -12.347656 4.46875 -12.734375 C 3.78125 -13.128906 3.222656 -13.6875 2.796875 -14.40625 C 2.367188 -15.125 2.15625 -15.984375 2.15625 -16.984375 C 2.15625 -18.734375 2.753906 -20.160156 3.953125 -21.265625 C 5.148438 -22.378906 6.75 -22.9375 8.75 -22.9375 C 10.757812 -22.9375 12.675781 -22.707031 14.5 -22.25 L 14.859375 -18.171875 L 14.25 -17.90625 L 13.921875 -20.484375 C 12.304688 -21.679688 10.789062 -22.28125 9.375 -22.28125 C 7.957031 -22.28125 6.769531 -21.847656 5.8125 -20.984375 C 4.851562 -20.128906 4.375 -18.84375 4.375 -17.125 C 4.375 -16.113281 4.773438 -15.316406 5.578125 -14.734375 C 6.390625 -14.148438 7.363281 -13.691406 8.5 -13.359375 C 9.644531 -13.035156 10.789062 -12.664062 11.9375 -12.25 C 13.082031 -11.832031 14.054688 -11.132812 14.859375 -10.15625 C 15.671875 -9.175781 16.078125 -7.90625 16.078125 -6.34375 C 16.078125 -4.226562 15.320312 -2.632812 13.8125 -1.5625 C 12.3125 -0.5 10.332031 0.03125 7.875 0.03125 C 5.414062 0.03125 3.28125 -0.628906 1.46875 -1.953125 L 1.5 -5.421875 L 2.125 -5.59375 L 2.1875 -3.71875 C 2.78125 -2.894531 3.585938 -2.171875 4.609375 -1.546875 C 5.628906 -0.929688 6.6875 -0.625 7.78125 -0.625 Z M 7.78125 -0.625 " />
      </g>
    </g>
  </g>
  <g fill="#ffc1b2" fill-opacity="0.302">
    <g transform="translate(151.777461, 193.156187)">
      <g>
        <path d="M 6.234375 -15 L 6.234375 -0.65625 L 8.6875 -0.484375 C 8.6875 -0.460938 8.675781 -0.300781 8.65625 0 L 2.125 0.03125 C 2.125 -0.164062 2.132812 -0.316406 2.15625 -0.421875 L 3.859375 -0.65625 C 3.984375 -0.65625 4.066406 -0.753906 4.109375 -0.953125 L 4.109375 -15.296875 C 4.066406 -15.441406 4.003906 -15.515625 3.921875 -15.515625 L 1.953125 -15.578125 L 2 -16.046875 C 3.164062 -16.242188 4.054688 -16.34375 4.671875 -16.34375 C 5.285156 -16.34375 5.695312 -16.195312 5.90625 -15.90625 C 6.125 -15.625 6.234375 -15.320312 6.234375 -15 Z M 5.125 -20.71875 C 4.6875 -20.71875 4.347656 -20.851562 4.109375 -21.125 C 3.867188 -21.394531 3.75 -21.753906 3.75 -22.203125 C 3.75 -22.648438 3.875 -23.007812 4.125 -23.28125 C 4.382812 -23.550781 4.726562 -23.6875 5.15625 -23.6875 C 5.59375 -23.6875 5.945312 -23.550781 6.21875 -23.28125 C 6.488281 -23.007812 6.625 -22.640625 6.625 -22.171875 C 6.625 -21.703125 6.484375 -21.34375 6.203125 -21.09375 C 5.921875 -20.84375 5.5625 -20.71875 5.125 -20.71875 Z M 5.125 -20.71875 " />
      </g>
    </g>
  </g>
  <g fill="#ffc1b2" fill-opacity="0.302">
    <g transform="translate(162.101748, 193.156187)">
      <g>
        <path d="M 10.15625 -15.71875 C 8.851562 -15.695312 7.4375 -15.21875 5.90625 -14.28125 L 5.90625 -0.65625 L 8.359375 -0.484375 C 8.359375 -0.460938 8.347656 -0.300781 8.328125 0 L 1.796875 0.03125 C 1.796875 -0.164062 1.804688 -0.316406 1.828125 -0.421875 L 3.53125 -0.65625 C 3.65625 -0.65625 3.742188 -0.753906 3.796875 -0.953125 L 3.796875 -15.296875 C 3.742188 -15.441406 3.675781 -15.515625 3.59375 -15.515625 L 1.640625 -15.578125 L 1.671875 -16.046875 C 2.847656 -16.242188 3.738281 -16.34375 4.34375 -16.34375 C 4.957031 -16.34375 5.367188 -16.195312 5.578125 -15.90625 C 5.796875 -15.625 5.90625 -15.320312 5.90625 -15 L 5.90625 -14.609375 C 7.71875 -15.734375 9.375 -16.34375 10.875 -16.4375 C 12.945312 -16.4375 14.351562 -15.847656 15.09375 -14.671875 C 16.988281 -15.753906 18.773438 -16.34375 20.453125 -16.4375 C 21.972656 -16.4375 23.128906 -16.117188 23.921875 -15.484375 C 24.285156 -15.203125 24.601562 -14.757812 24.875 -14.15625 C 25.144531 -13.5625 25.28125 -12.847656 25.28125 -12.015625 L 25.28125 -0.65625 L 27.734375 -0.484375 C 27.734375 -0.460938 27.722656 -0.300781 27.703125 0 L 21.171875 0.03125 C 21.171875 -0.164062 21.179688 -0.316406 21.203125 -0.421875 L 22.90625 -0.65625 C 23.03125 -0.65625 23.117188 -0.753906 23.171875 -0.953125 L 23.171875 -11.203125 C 23.171875 -12.078125 23.0625 -12.820312 22.84375 -13.4375 C 22.625 -14.0625 22.382812 -14.515625 22.125 -14.796875 C 21.863281 -15.078125 21.535156 -15.296875 21.140625 -15.453125 C 20.703125 -15.628906 20.234375 -15.71875 19.734375 -15.71875 C 18.378906 -15.695312 16.910156 -15.179688 15.328125 -14.171875 C 15.609375 -13.566406 15.75 -12.847656 15.75 -12.015625 L 15.75 -0.65625 L 18.203125 -0.484375 C 18.203125 -0.460938 18.191406 -0.300781 18.171875 0 L 11.59375 0.03125 L 11.625 -0.421875 L 13.328125 -0.65625 C 13.484375 -0.675781 13.582031 -0.785156 13.625 -0.984375 L 13.625 -11.234375 C 13.625 -12.304688 13.484375 -13.179688 13.203125 -13.859375 C 12.921875 -14.546875 12.539062 -15 12.0625 -15.21875 C 11.40625 -15.550781 10.769531 -15.71875 10.15625 -15.71875 Z M 10.15625 -15.71875 " />
      </g>
    </g>
  </g>
  <g fill="#ffc1b2" fill-opacity="0.302">
    <g transform="translate(191.800423, 193.156187)">
      <g>
        <path d="M 2.125 8.171875 L 2.15625 7.703125 L 3.859375 7.484375 C 4.054688 7.460938 4.15625 7.3125 4.15625 7.03125 L 4.15625 -15.25 C 4.101562 -15.425781 4.035156 -15.515625 3.953125 -15.515625 L 1.953125 -15.578125 L 2 -16.046875 C 3.363281 -16.242188 4.296875 -16.34375 4.796875 -16.34375 C 5.296875 -16.34375 5.65625 -16.210938 5.875 -15.953125 C 6.09375 -15.703125 6.222656 -15.425781 6.265625 -15.125 C 7.640625 -16.125 9.101562 -16.625 10.65625 -16.625 C 12.132812 -16.625 13.523438 -16.164062 14.828125 -15.25 C 15.523438 -14.75 16.085938 -13.960938 16.515625 -12.890625 C 16.941406 -11.828125 17.15625 -10.535156 17.15625 -9.015625 C 17.15625 -6.117188 16.4375 -3.941406 15 -2.484375 C 13.363281 -0.828125 11.25 0 8.65625 0 C 7.894531 0 7.097656 -0.0507812 6.265625 -0.15625 L 6.265625 7.484375 L 9.046875 7.640625 C 9.023438 7.953125 9.015625 8.117188 9.015625 8.140625 Z M 6.265625 -14.46875 L 6.265625 -0.84375 C 6.898438 -0.695312 7.585938 -0.625 8.328125 -0.625 C 10.460938 -0.625 12.113281 -1.347656 13.28125 -2.796875 C 14.445312 -4.242188 15.03125 -6.265625 15.03125 -8.859375 C 15.03125 -11.816406 14.441406 -13.804688 13.265625 -14.828125 C 12.347656 -15.640625 11.320312 -16.046875 10.1875 -16.046875 C 9.0625 -16.046875 7.753906 -15.519531 6.265625 -14.46875 Z M 6.265625 -14.46875 " />
      </g>
    </g>
  </g>
  <g fill="#ffc1b2" fill-opacity="0.302">
    <g transform="translate(210.423358, 193.156187)">
      <g>
        <path d="M 2.125 0.03125 L 2.15625 -0.421875 L 3.859375 -0.65625 C 4.003906 -0.675781 4.101562 -0.785156 4.15625 -0.984375 L 4.15625 -23.328125 C 4.15625 -23.566406 4.085938 -23.6875 3.953125 -23.6875 L 1.953125 -23.75 L 2 -24.203125 C 3.363281 -24.398438 4.300781 -24.5 4.8125 -24.5 C 5.332031 -24.5 5.703125 -24.359375 5.921875 -24.078125 C 6.148438 -23.796875 6.265625 -23.492188 6.265625 -23.171875 L 6.265625 -0.65625 L 8.71875 -0.484375 C 8.71875 -0.460938 8.707031 -0.300781 8.6875 0 Z M 2.125 0.03125 " />
      </g>
    </g>
  </g>
  <g fill="#ffc1b2" fill-opacity="0.302">
    <g transform="translate(220.453601, 193.156187)">
      <g>
        <path d="M 3.59375 -7.515625 C 3.59375 -2.804688 5.421875 -0.453125 9.078125 -0.453125 C 10.035156 -0.453125 11.054688 -0.554688 12.140625 -0.765625 C 13.234375 -0.972656 13.9375 -1.164062 14.25 -1.34375 L 14.46875 -1.015625 C 13.96875 -0.679688 13.144531 -0.40625 12 -0.1875 C 10.863281 0.0195312 9.820312 0.125 8.875 0.125 C 7.925781 0.125 7.070312 0.03125 6.3125 -0.15625 C 5.5625 -0.351562 4.796875 -0.703125 4.015625 -1.203125 C 3.234375 -1.703125 2.613281 -2.484375 2.15625 -3.546875 C 1.695312 -4.617188 1.46875 -5.929688 1.46875 -7.484375 C 1.46875 -10.359375 2.207031 -12.554688 3.6875 -14.078125 C 5.238281 -15.671875 7.035156 -16.46875 9.078125 -16.46875 C 11.128906 -16.46875 12.691406 -15.898438 13.765625 -14.765625 C 14.847656 -13.628906 15.390625 -12.039062 15.390625 -10 C 15.390625 -9.5625 15.359375 -9.09375 15.296875 -8.59375 L 3.625 -8.59375 C 3.601562 -8.351562 3.59375 -7.992188 3.59375 -7.515625 Z M 13.453125 -10.21875 C 13.453125 -11.851562 13.09375 -13.1875 12.375 -14.21875 C 11.65625 -15.257812 10.675781 -15.78125 9.4375 -15.78125 C 7.832031 -15.78125 6.472656 -15.070312 5.359375 -13.65625 C 4.460938 -12.539062 3.90625 -11.0625 3.6875 -9.21875 L 13.421875 -9.21875 C 13.441406 -9.457031 13.453125 -9.789062 13.453125 -10.21875 Z M 13.453125 -10.21875 " />
      </g>
    </g>
  </g>
  <g fill="#ffc1b2" fill-opacity="0.502">
    <g transform="translate(135.424236, 193.523294)">
      <g>
        <path d="M 7.78125 -0.625 C 9.382812 -0.625 10.796875 -1.097656 12.015625 -2.046875 C 13.242188 -2.992188 13.859375 -4.4375 13.859375 -6.375 C 13.859375 -7.238281 13.644531 -7.984375 13.21875 -8.609375 C 12.789062 -9.234375 12.226562 -9.710938 11.53125 -10.046875 C 10.832031 -10.378906 10.066406 -10.671875 9.234375 -10.921875 C 8.410156 -11.171875 7.582031 -11.4375 6.75 -11.71875 C 5.925781 -12.007812 5.164062 -12.347656 4.46875 -12.734375 C 3.78125 -13.128906 3.222656 -13.6875 2.796875 -14.40625 C 2.367188 -15.125 2.15625 -15.984375 2.15625 -16.984375 C 2.15625 -18.734375 2.753906 -20.160156 3.953125 -21.265625 C 5.148438 -22.378906 6.75 -22.9375 8.75 -22.9375 C 10.757812 -22.9375 12.675781 -22.707031 14.5 -22.25 L 14.859375 -18.171875 L 14.25 -17.90625 L 13.921875 -20.484375 C 12.304688 -21.679688 10.789062 -22.28125 9.375 -22.28125 C 7.957031 -22.28125 6.769531 -21.847656 5.8125 -20.984375 C 4.851562 -20.128906 4.375 -18.84375 4.375 -17.125 C 4.375 -16.113281 4.773438 -15.316406 5.578125 -14.734375 C 6.390625 -14.148438 7.363281 -13.691406 8.5 -13.359375 C 9.644531 -13.035156 10.789062 -12.664062 11.9375 -12.25 C 13.082031 -11.832031 14.054688 -11.132812 14.859375 -10.15625 C 15.671875 -9.175781 16.078125 -7.90625 16.078125 -6.34375 C 16.078125 -4.226562 15.320312 -2.632812 13.8125 -1.5625 C 12.3125 -0.5 10.332031 0.03125 7.875 0.03125 C 5.414062 0.03125 3.28125 -0.628906 1.46875 -1.953125 L 1.5 -5.421875 L 2.125 -5.59375 L 2.1875 -3.71875 C 2.78125 -2.894531 3.585938 -2.171875 4.609375 -1.546875 C 5.628906 -0.929688 6.6875 -0.625 7.78125 -0.625 Z M 7.78125 -0.625 " />
      </g>
    </g>
  </g>
  <g fill="#ffc1b2" fill-opacity="0.502">
    <g transform="translate(152.642283, 193.523294)">
      <g>
        <path d="M 6.234375 -15 L 6.234375 -0.65625 L 8.6875 -0.484375 C 8.6875 -0.460938 8.675781 -0.300781 8.65625 0 L 2.125 0.03125 C 2.125 -0.164062 2.132812 -0.316406 2.15625 -0.421875 L 3.859375 -0.65625 C 3.984375 -0.65625 4.066406 -0.753906 4.109375 -0.953125 L 4.109375 -15.296875 C 4.066406 -15.441406 4.003906 -15.515625 3.921875 -15.515625 L 1.953125 -15.578125 L 2 -16.046875 C 3.164062 -16.242188 4.054688 -16.34375 4.671875 -16.34375 C 5.285156 -16.34375 5.695312 -16.195312 5.90625 -15.90625 C 6.125 -15.625 6.234375 -15.320312 6.234375 -15 Z M 5.125 -20.71875 C 4.6875 -20.71875 4.347656 -20.851562 4.109375 -21.125 C 3.867188 -21.394531 3.75 -21.753906 3.75 -22.203125 C 3.75 -22.648438 3.875 -23.007812 4.125 -23.28125 C 4.382812 -23.550781 4.726562 -23.6875 5.15625 -23.6875 C 5.59375 -23.6875 5.945312 -23.550781 6.21875 -23.28125 C 6.488281 -23.007812 6.625 -22.640625 6.625 -22.171875 C 6.625 -21.703125 6.484375 -21.34375 6.203125 -21.09375 C 5.921875 -20.84375 5.5625 -20.71875 5.125 -20.71875 Z M 5.125 -20.71875 " />
      </g>
    </g>
  </g>
  <g fill="#ffc1b2" fill-opacity="0.502">
    <g transform="translate(162.96657, 193.523294)">
      <g>
        <path d="M 10.15625 -15.71875 C 8.851562 -15.695312 7.4375 -15.21875 5.90625 -14.28125 L 5.90625 -0.65625 L 8.359375 -0.484375 C 8.359375 -0.460938 8.347656 -0.300781 8.328125 0 L 1.796875 0.03125 C 1.796875 -0.164062 1.804688 -0.316406 1.828125 -0.421875 L 3.53125 -0.65625 C 3.65625 -0.65625 3.742188 -0.753906 3.796875 -0.953125 L 3.796875 -15.296875 C 3.742188 -15.441406 3.675781 -15.515625 3.59375 -15.515625 L 1.640625 -15.578125 L 1.671875 -16.046875 C 2.847656 -16.242188 3.738281 -16.34375 4.34375 -16.34375 C 4.957031 -16.34375 5.367188 -16.195312 5.578125 -15.90625 C 5.796875 -15.625 5.90625 -15.320312 5.90625 -15 L 5.90625 -14.609375 C 7.71875 -15.734375 9.375 -16.34375 10.875 -16.4375 C 12.945312 -16.4375 14.351562 -15.847656 15.09375 -14.671875 C 16.988281 -15.753906 18.773438 -16.34375 20.453125 -16.4375 C 21.972656 -16.4375 23.128906 -16.117188 23.921875 -15.484375 C 24.285156 -15.203125 24.601562 -14.757812 24.875 -14.15625 C 25.144531 -13.5625 25.28125 -12.847656 25.28125 -12.015625 L 25.28125 -0.65625 L 27.734375 -0.484375 C 27.734375 -0.460938 27.722656 -0.300781 27.703125 0 L 21.171875 0.03125 C 21.171875 -0.164062 21.179688 -0.316406 21.203125 -0.421875 L 22.90625 -0.65625 C 23.03125 -0.65625 23.117188 -0.753906 23.171875 -0.953125 L 23.171875 -11.203125 C 23.171875 -12.078125 23.0625 -12.820312 22.84375 -13.4375 C 22.625 -14.0625 22.382812 -14.515625 22.125 -14.796875 C 21.863281 -15.078125 21.535156 -15.296875 21.140625 -15.453125 C 20.703125 -15.628906 20.234375 -15.71875 19.734375 -15.71875 C 18.378906 -15.695312 16.910156 -15.179688 15.328125 -14.171875 C 15.609375 -13.566406 15.75 -12.847656 15.75 -12.015625 L 15.75 -0.65625 L 18.203125 -0.484375 C 18.203125 -0.460938 18.191406 -0.300781 18.171875 0 L 11.59375 0.03125 L 11.625 -0.421875 L 13.328125 -0.65625 C 13.484375 -0.675781 13.582031 -0.785156 13.625 -0.984375 L 13.625 -11.234375 C 13.625 -12.304688 13.484375 -13.179688 13.203125 -13.859375 C 12.921875 -14.546875 12.539062 -15 12.0625 -15.21875 C 11.40625 -15.550781 10.769531 -15.71875 10.15625 -15.71875 Z M 10.15625 -15.71875 " />
      </g>
    </g>
  </g>
  <g fill="#ffc1b2" fill-opacity="0.502">
    <g transform="translate(192.665245, 193.523294)">
      <g>
        <path d="M 2.125 8.171875 L 2.15625 7.703125 L 3.859375 7.484375 C 4.054688 7.460938 4.15625 7.3125 4.15625 7.03125 L 4.15625 -15.25 C 4.101562 -15.425781 4.035156 -15.515625 3.953125 -15.515625 L 1.953125 -15.578125 L 2 -16.046875 C 3.363281 -16.242188 4.296875 -16.34375 4.796875 -16.34375 C 5.296875 -16.34375 5.65625 -16.210938 5.875 -15.953125 C 6.09375 -15.703125 6.222656 -15.425781 6.265625 -15.125 C 7.640625 -16.125 9.101562 -16.625 10.65625 -16.625 C 12.132812 -16.625 13.523438 -16.164062 14.828125 -15.25 C 15.523438 -14.75 16.085938 -13.960938 16.515625 -12.890625 C 16.941406 -11.828125 17.15625 -10.535156 17.15625 -9.015625 C 17.15625 -6.117188 16.4375 -3.941406 15 -2.484375 C 13.363281 -0.828125 11.25 0 8.65625 0 C 7.894531 0 7.097656 -0.0507812 6.265625 -0.15625 L 6.265625 7.484375 L 9.046875 7.640625 C 9.023438 7.953125 9.015625 8.117188 9.015625 8.140625 Z M 6.265625 -14.46875 L 6.265625 -0.84375 C 6.898438 -0.695312 7.585938 -0.625 8.328125 -0.625 C 10.460938 -0.625 12.113281 -1.347656 13.28125 -2.796875 C 14.445312 -4.242188 15.03125 -6.265625 15.03125 -8.859375 C 15.03125 -11.816406 14.441406 -13.804688 13.265625 -14.828125 C 12.347656 -15.640625 11.320312 -16.046875 10.1875 -16.046875 C 9.0625 -16.046875 7.753906 -15.519531 6.265625 -14.46875 Z M 6.265625 -14.46875 " />
      </g>
    </g>
  </g>
  <g fill="#ffc1b2" fill-opacity="0.502">
    <g transform="translate(211.28818, 193.523294)">
      <g>
        <path d="M 2.125 0.03125 L 2.15625 -0.421875 L 3.859375 -0.65625 C 4.003906 -0.675781 4.101562 -0.785156 4.15625 -0.984375 L 4.15625 -23.328125 C 4.15625 -23.566406 4.085938 -23.6875 3.953125 -23.6875 L 1.953125 -23.75 L 2 -24.203125 C 3.363281 -24.398438 4.300781 -24.5 4.8125 -24.5 C 5.332031 -24.5 5.703125 -24.359375 5.921875 -24.078125 C 6.148438 -23.796875 6.265625 -23.492188 6.265625 -23.171875 L 6.265625 -0.65625 L 8.71875 -0.484375 C 8.71875 -0.460938 8.707031 -0.300781 8.6875 0 Z M 2.125 0.03125 " />
      </g>
    </g>
  </g>
  <g fill="#ffc1b2" fill-opacity="0.502">
    <g transform="translate(221.318422, 193.523294)">
      <g>
        <path d="M 3.59375 -7.515625 C 3.59375 -2.804688 5.421875 -0.453125 9.078125 -0.453125 C 10.035156 -0.453125 11.054688 -0.554688 12.140625 -0.765625 C 13.234375 -0.972656 13.9375 -1.164062 14.25 -1.34375 L 14.46875 -1.015625 C 13.96875 -0.679688 13.144531 -0.40625 12 -0.1875 C 10.863281 0.0195312 9.820312 0.125 8.875 0.125 C 7.925781 0.125 7.070312 0.03125 6.3125 -0.15625 C 5.5625 -0.351562 4.796875 -0.703125 4.015625 -1.203125 C 3.234375 -1.703125 2.613281 -2.484375 2.15625 -3.546875 C 1.695312 -4.617188 1.46875 -5.929688 1.46875 -7.484375 C 1.46875 -10.359375 2.207031 -12.554688 3.6875 -14.078125 C 5.238281 -15.671875 7.035156 -16.46875 9.078125 -16.46875 C 11.128906 -16.46875 12.691406 -15.898438 13.765625 -14.765625 C 14.847656 -13.628906 15.390625 -12.039062 15.390625 -10 C 15.390625 -9.5625 15.359375 -9.09375 15.296875 -8.59375 L 3.625 -8.59375 C 3.601562 -8.351562 3.59375 -7.992188 3.59375 -7.515625 Z M 13.453125 -10.21875 C 13.453125 -11.851562 13.09375 -13.1875 12.375 -14.21875 C 11.65625 -15.257812 10.675781 -15.78125 9.4375 -15.78125 C 7.832031 -15.78125 6.472656 -15.070312 5.359375 -13.65625 C 4.460938 -12.539062 3.90625 -11.0625 3.6875 -9.21875 L 13.421875 -9.21875 C 13.441406 -9.457031 13.453125 -9.789062 13.453125 -10.21875 Z M 13.453125 -10.21875 " />
      </g>
    </g>
  </g>
  <g fill="#ff914d" fill-opacity="1">
    <g transform="translate(136.289058, 193.890383)">
      <g>
        <path d="M 7.78125 -0.625 C 9.382812 -0.625 10.796875 -1.097656 12.015625 -2.046875 C 13.242188 -2.992188 13.859375 -4.4375 13.859375 -6.375 C 13.859375 -7.238281 13.644531 -7.984375 13.21875 -8.609375 C 12.789062 -9.234375 12.226562 -9.710938 11.53125 -10.046875 C 10.832031 -10.378906 10.066406 -10.671875 9.234375 -10.921875 C 8.410156 -11.171875 7.582031 -11.4375 6.75 -11.71875 C 5.925781 -12.007812 5.164062 -12.347656 4.46875 -12.734375 C 3.78125 -13.128906 3.222656 -13.6875 2.796875 -14.40625 C 2.367188 -15.125 2.15625 -15.984375 2.15625 -16.984375 C 2.15625 -18.734375 2.753906 -20.160156 3.953125 -21.265625 C 5.148438 -22.378906 6.75 -22.9375 8.75 -22.9375 C 10.757812 -22.9375 12.675781 -22.707031 14.5 -22.25 L 14.859375 -18.171875 L 14.25 -17.90625 L 13.921875 -20.484375 C 12.304688 -21.679688 10.789062 -22.28125 9.375 -22.28125 C 7.957031 -22.28125 6.769531 -21.847656 5.8125 -20.984375 C 4.851562 -20.128906 4.375 -18.84375 4.375 -17.125 C 4.375 -16.113281 4.773438 -15.316406 5.578125 -14.734375 C 6.390625 -14.148438 7.363281 -13.691406 8.5 -13.359375 C 9.644531 -13.035156 10.789062 -12.664062 11.9375 -12.25 C 13.082031 -11.832031 14.054688 -11.132812 14.859375 -10.15625 C 15.671875 -9.175781 16.078125 -7.90625 16.078125 -6.34375 C 16.078125 -4.226562 15.320312 -2.632812 13.8125 -1.5625 C 12.3125 -0.5 10.332031 0.03125 7.875 0.03125 C 5.414062 0.03125 3.28125 -0.628906 1.46875 -1.953125 L 1.5 -5.421875 L 2.125 -5.59375 L 2.1875 -3.71875 C 2.78125 -2.894531 3.585938 -2.171875 4.609375 -1.546875 C 5.628906 -0.929688 6.6875 -0.625 7.78125 -0.625 Z M 7.78125 -0.625 " />
      </g>
    </g>
  </g>
  <g fill="#ff914d" fill-opacity="1">
    <g transform="translate(153.507105, 193.890383)">
      <g>
        <path d="M 6.234375 -15 L 6.234375 -0.65625 L 8.6875 -0.484375 C 8.6875 -0.460938 8.675781 -0.300781 8.65625 0 L 2.125 0.03125 C 2.125 -0.164062 2.132812 -0.316406 2.15625 -0.421875 L 3.859375 -0.65625 C 3.984375 -0.65625 4.066406 -0.753906 4.109375 -0.953125 L 4.109375 -15.296875 C 4.066406 -15.441406 4.003906 -15.515625 3.921875 -15.515625 L 1.953125 -15.578125 L 2 -16.046875 C 3.164062 -16.242188 4.054688 -16.34375 4.671875 -16.34375 C 5.285156 -16.34375 5.695312 -16.195312 5.90625 -15.90625 C 6.125 -15.625 6.234375 -15.320312 6.234375 -15 Z M 5.125 -20.71875 C 4.6875 -20.71875 4.347656 -20.851562 4.109375 -21.125 C 3.867188 -21.394531 3.75 -21.753906 3.75 -22.203125 C 3.75 -22.648438 3.875 -23.007812 4.125 -23.28125 C 4.382812 -23.550781 4.726562 -23.6875 5.15625 -23.6875 C 5.59375 -23.6875 5.945312 -23.550781 6.21875 -23.28125 C 6.488281 -23.007812 6.625 -22.640625 6.625 -22.171875 C 6.625 -21.703125 6.484375 -21.34375 6.203125 -21.09375 C 5.921875 -20.84375 5.5625 -20.71875 5.125 -20.71875 Z M 5.125 -20.71875 " />
      </g>
    </g>
  </g>
  <g fill="#ff914d" fill-opacity="1">
    <g transform="translate(163.831391, 193.890383)">
      <g>
        <path d="M 10.15625 -15.71875 C 8.851562 -15.695312 7.4375 -15.21875 5.90625 -14.28125 L 5.90625 -0.65625 L 8.359375 -0.484375 C 8.359375 -0.460938 8.347656 -0.300781 8.328125 0 L 1.796875 0.03125 C 1.796875 -0.164062 1.804688 -0.316406 1.828125 -0.421875 L 3.53125 -0.65625 C 3.65625 -0.65625 3.742188 -0.753906 3.796875 -0.953125 L 3.796875 -15.296875 C 3.742188 -15.441406 3.675781 -15.515625 3.59375 -15.515625 L 1.640625 -15.578125 L 1.671875 -16.046875 C 2.847656 -16.242188 3.738281 -16.34375 4.34375 -16.34375 C 4.957031 -16.34375 5.367188 -16.195312 5.578125 -15.90625 C 5.796875 -15.625 5.90625 -15.320312 5.90625 -15 L 5.90625 -14.609375 C 7.71875 -15.734375 9.375 -16.34375 10.875 -16.4375 C 12.945312 -16.4375 14.351562 -15.847656 15.09375 -14.671875 C 16.988281 -15.753906 18.773438 -16.34375 20.453125 -16.4375 C 21.972656 -16.4375 23.128906 -16.117188 23.921875 -15.484375 C 24.285156 -15.203125 24.601562 -14.757812 24.875 -14.15625 C 25.144531 -13.5625 25.28125 -12.847656 25.28125 -12.015625 L 25.28125 -0.65625 L 27.734375 -0.484375 C 27.734375 -0.460938 27.722656 -0.300781 27.703125 0 L 21.171875 0.03125 C 21.171875 -0.164062 21.179688 -0.316406 21.203125 -0.421875 L 22.90625 -0.65625 C 23.03125 -0.65625 23.117188 -0.753906 23.171875 -0.953125 L 23.171875 -11.203125 C 23.171875 -12.078125 23.0625 -12.820312 22.84375 -13.4375 C 22.625 -14.0625 22.382812 -14.515625 22.125 -14.796875 C 21.863281 -15.078125 21.535156 -15.296875 21.140625 -15.453125 C 20.703125 -15.628906 20.234375 -15.71875 19.734375 -15.71875 C 18.378906 -15.695312 16.910156 -15.179688 15.328125 -14.171875 C 15.609375 -13.566406 15.75 -12.847656 15.75 -12.015625 L 15.75 -0.65625 L 18.203125 -0.484375 C 18.203125 -0.460938 18.191406 -0.300781 18.171875 0 L 11.59375 0.03125 L 11.625 -0.421875 L 13.328125 -0.65625 C 13.484375 -0.675781 13.582031 -0.785156 13.625 -0.984375 L 13.625 -11.234375 C 13.625 -12.304688 13.484375 -13.179688 13.203125 -13.859375 C 12.921875 -14.546875 12.539062 -15 12.0625 -15.21875 C 11.40625 -15.550781 10.769531 -15.71875 10.15625 -15.71875 Z M 10.15625 -15.71875 " />
      </g>
    </g>
  </g>
  <g fill="#ff914d" fill-opacity="1">
    <g transform="translate(193.530066, 193.890383)">
      <g>
        <path d="M 2.125 8.171875 L 2.15625 7.703125 L 3.859375 7.484375 C 4.054688 7.460938 4.15625 7.3125 4.15625 7.03125 L 4.15625 -15.25 C 4.101562 -15.425781 4.035156 -15.515625 3.953125 -15.515625 L 1.953125 -15.578125 L 2 -16.046875 C 3.363281 -16.242188 4.296875 -16.34375 4.796875 -16.34375 C 5.296875 -16.34375 5.65625 -16.210938 5.875 -15.953125 C 6.09375 -15.703125 6.222656 -15.425781 6.265625 -15.125 C 7.640625 -16.125 9.101562 -16.625 10.65625 -16.625 C 12.132812 -16.625 13.523438 -16.164062 14.828125 -15.25 C 15.523438 -14.75 16.085938 -13.960938 16.515625 -12.890625 C 16.941406 -11.828125 17.15625 -10.535156 17.15625 -9.015625 C 17.15625 -6.117188 16.4375 -3.941406 15 -2.484375 C 13.363281 -0.828125 11.25 0 8.65625 0 C 7.894531 0 7.097656 -0.0507812 6.265625 -0.15625 L 6.265625 7.484375 L 9.046875 7.640625 C 9.023438 7.953125 9.015625 8.117188 9.015625 8.140625 Z M 6.265625 -14.46875 L 6.265625 -0.84375 C 6.898438 -0.695312 7.585938 -0.625 8.328125 -0.625 C 10.460938 -0.625 12.113281 -1.347656 13.28125 -2.796875 C 14.445312 -4.242188 15.03125 -6.265625 15.03125 -8.859375 C 15.03125 -11.816406 14.441406 -13.804688 13.265625 -14.828125 C 12.347656 -15.640625 11.320312 -16.046875 10.1875 -16.046875 C 9.0625 -16.046875 7.753906 -15.519531 6.265625 -14.46875 Z M 6.265625 -14.46875 " />
      </g>
    </g>
  </g>
  <g fill="#ff914d" fill-opacity="1">
    <g transform="translate(212.153002, 193.890383)">
      <g>
        <path d="M 2.125 0.03125 L 2.15625 -0.421875 L 3.859375 -0.65625 C 4.003906 -0.675781 4.101562 -0.785156 4.15625 -0.984375 L 4.15625 -23.328125 C 4.15625 -23.566406 4.085938 -23.6875 3.953125 -23.6875 L 1.953125 -23.75 L 2 -24.203125 C 3.363281 -24.398438 4.300781 -24.5 4.8125 -24.5 C 5.332031 -24.5 5.703125 -24.359375 5.921875 -24.078125 C 6.148438 -23.796875 6.265625 -23.492188 6.265625 -23.171875 L 6.265625 -0.65625 L 8.71875 -0.484375 C 8.71875 -0.460938 8.707031 -0.300781 8.6875 0 Z M 2.125 0.03125 " />
      </g>
    </g>
  </g>
  <g fill="#ff914d" fill-opacity="1">
    <g transform="translate(222.183244, 193.890383)">
      <g>
        <path d="M 3.59375 -7.515625 C 3.59375 -2.804688 5.421875 -0.453125 9.078125 -0.453125 C 10.035156 -0.453125 11.054688 -0.554688 12.140625 -0.765625 C 13.234375 -0.972656 13.9375 -1.164062 14.25 -1.34375 L 14.46875 -1.015625 C 13.96875 -0.679688 13.144531 -0.40625 12 -0.1875 C 10.863281 0.0195312 9.820312 0.125 8.875 0.125 C 7.925781 0.125 7.070312 0.03125 6.3125 -0.15625 C 5.5625 -0.351562 4.796875 -0.703125 4.015625 -1.203125 C 3.234375 -1.703125 2.613281 -2.484375 2.15625 -3.546875 C 1.695312 -4.617188 1.46875 -5.929688 1.46875 -7.484375 C 1.46875 -10.359375 2.207031 -12.554688 3.6875 -14.078125 C 5.238281 -15.671875 7.035156 -16.46875 9.078125 -16.46875 C 11.128906 -16.46875 12.691406 -15.898438 13.765625 -14.765625 C 14.847656 -13.628906 15.390625 -12.039062 15.390625 -10 C 15.390625 -9.5625 15.359375 -9.09375 15.296875 -8.59375 L 3.625 -8.59375 C 3.601562 -8.351562 3.59375 -7.992188 3.59375 -7.515625 Z M 13.453125 -10.21875 C 13.453125 -11.851562 13.09375 -13.1875 12.375 -14.21875 C 11.65625 -15.257812 10.675781 -15.78125 9.4375 -15.78125 C 7.832031 -15.78125 6.472656 -15.070312 5.359375 -13.65625 C 4.460938 -12.539062 3.90625 -11.0625 3.6875 -9.21875 L 13.421875 -9.21875 C 13.441406 -9.457031 13.453125 -9.789062 13.453125 -10.21875 Z M 13.453125 -10.21875 " />
      </g>
    </g>
  </g>
</svg>